<?xml version="1.0" encoding="utf-8"?>
<!-- Generator: Adobe Illustrator 25.4.0, SVG Export Plug-In . SVG Version: 6.00 Build 0)  -->
<svg version="1.1" id="레이어_1" xmlns="http://www.w3.org/2000/svg" xmlns:xlink="http://www.w3.org/1999/xlink" x="0px"
	 y="0px" viewBox="0 0 243.7 43.2" style="enable-background:new 0 0 243.7 43.2;" xml:space="preserve">
<style type="text/css">
	.st0{fill:#FFFFFF;}
</style>
<g>
	<path class="st0" d="M92.1,0C80.2,0,70.5,9.7,70.5,21.6s9.7,21.6,21.6,21.6c5.7,0,10.9-2.2,14.8-5.8v5.8h6.8V21.6
		C113.7,9.7,104,0,92.1,0z M92.1,36.3c-8.1,0-14.8-6.6-14.8-14.8c0-8.1,6.6-14.8,14.8-14.8c8.1,0,14.8,6.6,14.8,14.8
		S100.2,36.3,92.1,36.3z"/>
	<path class="st0" d="M136.7,35.1c-0.1,0.3-0.5,0.3-0.6,0L124.8,0H118l12.6,38.9c0.8,2.6,3.2,4.3,5.9,4.3l0,0c2.7,0,5.1-1.7,5.9-4.3
		L154.9,0h-6.8L136.7,35.1z"/>
	<path class="st0" d="M178,35.1c-0.1,0.3-0.5,0.3-0.6,0L166.1,0h-6.8l12.6,38.9c0.8,2.6,3.2,4.3,5.9,4.3l0,0c2.7,0,5.1-1.7,5.9-4.3
		L196.2,0h-6.8L178,35.1z"/>
	<path class="st0" d="M48.9,35.1c-0.1,0.3-0.5,0.3-0.6,0L37,0h0h-6.8h0L18.8,35.1c-0.1,0.3-0.5,0.3-0.6,0L6.8,0H0l12.6,38.9
		c0.8,2.6,3.2,4.3,5.9,4.3l0,0c2.7,0,5.1-1.7,5.9-4.3l8.9-27.4c0.1-0.3,0.5-0.3,0.6,0l8.9,27.4c0.8,2.6,3.2,4.3,5.9,4.3l0,0
		c2.7,0,5.1-1.7,5.9-4.3L67.1,0h-6.8L48.9,35.1z"/>
	<path class="st0" d="M243.7,21.6C243.7,9.7,234,0,222.1,0c-11.9,0-21.6,9.7-21.6,21.6s9.7,21.6,21.6,21.6c8.7,0,16.2-5.1,19.6-12.5
		h-8c-2.7,3.5-6.9,5.7-11.6,5.7c-7,0-12.8-4.8-14.3-11.3h35.6C243.6,23.9,243.7,22.7,243.7,21.6z M207.8,18.2
		c1.5-6.5,7.4-11.3,14.3-11.3c7,0,12.8,4.8,14.3,11.3H207.8z"/>
</g>
</svg>
